<svg xmlns="http://www.w3.org/2000/svg" xmlns:xlink="http://www.w3.org/1999/xlink" width="78.562" height="110.589" preserveAspectRatio="xMidYMid meet" version="1.0"><defs><clipPath id="1b36035c4f"><path d="M 0.136719 22 L 79.507812 22 L 79.507812 111.730469 L 0.136719 111.730469 Z M 0.136719 22 " clip-rule="nonzero"/></clipPath><clipPath id="75caf3ee46"><path d="M 25 0.273438 L 55 0.273438 L 55 16 L 25 16 Z M 25 0.273438 " clip-rule="nonzero"/></clipPath></defs><g clip-path="url(#1b36035c4f)"><path fill="#e6a329" d="M 79.617188 22.113281 L 0.160156 22.113281 L 7.609375 102.609375 L 39.882812 111.730469 L 72.160156 102.609375 Z M 79.617188 22.113281 " fill-opacity="1" fill-rule="nonzero"/></g><path fill="#f1bf22" d="M 39.882812 28.671875 L 39.882812 104.910156 L 66.035156 97.527344 L 72.398438 28.671875 Z M 39.882812 28.671875 " fill-opacity="1" fill-rule="nonzero"/><path fill="#ffffff" d="M 60.6875 38.546875 L 20.480469 38.546875 L 17.679688 68.683594 L 17.738281 68.496094 L 51.898438 68.496094 L 50.785156 81.246094 L 39.886719 84.371094 L 28.824219 81.195312 L 28.164062 73.476562 L 18.125 73.476562 L 19.554688 88.898438 L 39.886719 94.648438 L 60.222656 88.898438 L 63.023438 58.628906 L 26.773438 58.628906 L 27.238281 48.546875 L 52.390625 48.546875 L 52.765625 54.324219 L 62.890625 54.324219 Z M 60.6875 38.546875 " fill-opacity="1" fill-rule="nonzero"/><path fill="#ebebeb" d="M 39.894531 38.546875 L 20.480469 38.546875 L 17.679688 68.683594 L 17.738281 68.496094 L 39.894531 68.496094 L 39.894531 58.664062 L 28.1875 58.664062 L 28.652344 48.578125 L 39.894531 48.578125 Z M 28.1875 73.484375 L 18.125 73.484375 L 19.554688 88.894531 L 39.882812 94.640625 L 39.882812 84.382812 L 28.824219 81.203125 Z M 28.1875 73.484375 " fill-opacity="1" fill-rule="nonzero"/><g clip-path="url(#75caf3ee46)"><path fill="#000000" d="M 32.160156 10.242188 L 25.085938 10.242188 L 25.085938 15.300781 L 37.222656 15.300781 L 37.222656 0.273438 L 32.164062 0.273438 Z M 54.691406 0.355469 L 42.359375 0.355469 L 42.359375 5.613281 C 44.003906 7.253906 44.863281 8.042969 47.289062 10.421875 L 42.359375 10.421875 L 42.359375 15.21875 L 54.6875 15.21875 L 54.6875 10.429688 L 49.761719 5.621094 L 54.695312 5.621094 Z M 54.691406 0.355469 " fill-opacity="1" fill-rule="nonzero"/></g></svg>