<svg xmlns="http://www.w3.org/2000/svg" xmlns:xlink="http://www.w3.org/1999/xlink" width="78.562" height="110.589" viewBox="0 0 375 374.999991"  version="1.0"><defs><clipPath id="44a760413a"><path d="M 54.203125 73 L 320.453125 73 L 320.453125 375 L 54.203125 375 Z M 54.203125 73 " clip-rule="nonzero"/></clipPath></defs><g clip-path="url(#44a760413a)"><path fill="#e6a329" d="M 320.359375 73.484375 L 54.300781 73.484375 L 79.242188 344.308594 L 187.316406 375 L 295.390625 344.308594 Z M 320.359375 73.484375 " fill-opacity="1" fill-rule="nonzero"/></g><path fill="#f1bf22" d="M 187.316406 95.550781 L 187.316406 352.050781 L 274.878906 327.210938 L 296.183594 95.550781 Z M 187.316406 95.550781 " fill-opacity="1" fill-rule="nonzero"/><path fill="#ffffff" d="M 256.980469 128.773438 L 122.34375 128.773438 L 112.964844 230.164062 L 113.160156 229.53125 L 227.539062 229.53125 L 223.8125 272.429688 L 187.320312 282.941406 L 150.285156 272.261719 L 148.070312 246.296875 L 114.453125 246.296875 L 119.25 298.179688 L 187.320312 317.527344 L 255.421875 298.179688 L 264.796875 196.34375 L 143.410156 196.34375 L 144.964844 162.414062 L 229.1875 162.414062 L 230.449219 181.851562 L 264.347656 181.851562 Z M 256.980469 128.773438 " fill-opacity="1" fill-rule="nonzero"/><path fill="#ebebeb" d="M 187.347656 128.773438 L 122.34375 128.773438 L 112.964844 230.164062 L 113.160156 229.53125 L 187.34375 229.53125 L 187.34375 196.457031 L 148.144531 196.457031 L 149.699219 162.527344 L 187.347656 162.527344 Z M 148.144531 246.3125 L 114.449219 246.3125 L 119.246094 298.167969 L 187.316406 317.496094 L 187.316406 282.992188 L 150.285156 272.28125 Z M 148.144531 246.3125 " fill-opacity="1" fill-rule="nonzero"/><path fill="#000000" d="M 161.445312 33.539062 L 137.757812 33.539062 L 137.757812 50.566406 L 178.398438 50.566406 L 178.398438 0 L 161.464844 0 Z M 236.890625 0.269531 L 195.601562 0.269531 L 195.601562 17.972656 C 201.113281 23.492188 203.988281 26.148438 212.109375 34.144531 L 195.601562 34.144531 L 195.601562 50.285156 L 236.886719 50.285156 L 236.886719 34.171875 L 220.394531 18 L 236.902344 18 Z M 236.890625 0.269531 " fill-opacity="1" fill-rule="nonzero"/>
</svg>