<svg xmlns="http://www.w3.org/2000/svg" xmlns:xlink="http://www.w3.org/1999/xlink" width="300" zoomAndPan="magnify" viewBox="0 0 224.87999 74.999997" height="100" preserveAspectRatio="xMidYMid meet" version="1.0"><defs><g/><clipPath id="d1e547efa1"><path d="M 27 63 L 42 63 L 42 74.980469 L 27 74.980469 Z M 27 63 " clip-rule="nonzero"/></clipPath><clipPath id="7fdac038a3"><path d="M 46 63 L 54 63 L 54 74.980469 L 46 74.980469 Z M 46 63 " clip-rule="nonzero"/></clipPath><clipPath id="753b766391"><path d="M 58 63 L 67 63 L 67 74.980469 L 58 74.980469 Z M 58 63 " clip-rule="nonzero"/></clipPath><clipPath id="a490c71d2e"><path d="M 70 74 L 71 74 L 71 74.980469 L 70 74.980469 Z M 70 74 " clip-rule="nonzero"/></clipPath><clipPath id="fc45220316"><path d="M 78 63 L 88 63 L 88 74.980469 L 78 74.980469 Z M 78 63 " clip-rule="nonzero"/></clipPath><clipPath id="a55c438878"><path d="M 92 63 L 100 63 L 100 74.980469 L 92 74.980469 Z M 92 63 " clip-rule="nonzero"/></clipPath><clipPath id="c3267b2769"><path d="M 104 63 L 113 63 L 113 74.980469 L 104 74.980469 Z M 104 63 " clip-rule="nonzero"/></clipPath><clipPath id="01332f6bce"><path d="M 117 63 L 125 63 L 125 74.980469 L 117 74.980469 Z M 117 63 " clip-rule="nonzero"/></clipPath><clipPath id="a064e969e3"><path d="M 129 63 L 137 63 L 137 74.980469 L 129 74.980469 Z M 129 63 " clip-rule="nonzero"/></clipPath><clipPath id="ad7ff53912"><path d="M 140 63 L 152 63 L 152 74.980469 L 140 74.980469 Z M 140 63 " clip-rule="nonzero"/></clipPath><clipPath id="df5991a713"><path d="M 156 63 L 165 63 L 165 74.980469 L 156 74.980469 Z M 156 63 " clip-rule="nonzero"/></clipPath><clipPath id="a8bfca4797"><path d="M 168 63 L 177 63 L 177 74.980469 L 168 74.980469 Z M 168 63 " clip-rule="nonzero"/></clipPath><clipPath id="3b0dfb7f9e"><path d="M 180 63 L 190 63 L 190 74.980469 L 180 74.980469 Z M 180 63 " clip-rule="nonzero"/></clipPath><clipPath id="7d75dd4935"><path d="M 193 74 L 194 74 L 194 74.980469 L 193 74.980469 Z M 193 74 " clip-rule="nonzero"/></clipPath></defs><g fill="#ffffff" fill-opacity="1"><g transform="translate(23.646052, 25.495674)"><g><path d="M 19.53125 -2.046875 L 19.53125 0 L 3.65625 0 L 3.65625 -22.453125 L 19.046875 -22.453125 L 19.046875 -20.40625 L 6.03125 -20.40625 L 6.03125 -12.421875 L 17.640625 -12.421875 L 17.640625 -10.390625 L 6.03125 -10.390625 L 6.03125 -2.046875 Z M 19.53125 -2.046875 "/></g></g></g><g fill="#ffffff" fill-opacity="1"><g transform="translate(45.877971, 25.495674)"><g><path d="M 3.65625 -22.453125 L 12.796875 -22.453125 C 15.171875 -22.453125 17.265625 -21.972656 19.078125 -21.015625 C 20.898438 -20.066406 22.3125 -18.742188 23.3125 -17.046875 C 24.320312 -15.347656 24.828125 -13.410156 24.828125 -11.234375 C 24.828125 -9.046875 24.320312 -7.101562 23.3125 -5.40625 C 22.3125 -3.707031 20.898438 -2.378906 19.078125 -1.421875 C 17.265625 -0.472656 15.171875 0 12.796875 0 L 3.65625 0 Z M 12.671875 -2.046875 C 14.640625 -2.046875 16.359375 -2.4375 17.828125 -3.21875 C 19.304688 -4 20.453125 -5.078125 21.265625 -6.453125 C 22.078125 -7.835938 22.484375 -9.429688 22.484375 -11.234375 C 22.484375 -13.023438 22.078125 -14.609375 21.265625 -15.984375 C 20.453125 -17.367188 19.304688 -18.453125 17.828125 -19.234375 C 16.359375 -20.015625 14.640625 -20.40625 12.671875 -20.40625 L 6.03125 -20.40625 L 6.03125 -2.046875 Z M 12.671875 -2.046875 "/></g></g></g><g fill="#ffffff" fill-opacity="1"><g transform="translate(73.146539, 25.495674)"><g><path d="M 12.703125 0.1875 C 9.796875 0.1875 7.53125 -0.644531 5.90625 -2.3125 C 4.28125 -3.976562 3.46875 -6.40625 3.46875 -9.59375 L 3.46875 -22.453125 L 5.84375 -22.453125 L 5.84375 -9.6875 C 5.84375 -7.082031 6.425781 -5.132812 7.59375 -3.84375 C 8.769531 -2.5625 10.472656 -1.921875 12.703125 -1.921875 C 14.953125 -1.921875 16.660156 -2.5625 17.828125 -3.84375 C 19.003906 -5.132812 19.59375 -7.082031 19.59375 -9.6875 L 19.59375 -22.453125 L 21.90625 -22.453125 L 21.90625 -9.59375 C 21.90625 -6.40625 21.097656 -3.976562 19.484375 -2.3125 C 17.867188 -0.644531 15.609375 0.1875 12.703125 0.1875 Z M 12.703125 0.1875 "/></g></g></g><g fill="#ffffff" fill-opacity="1"><g transform="translate(99.324368, 25.495674)"><g><path d="M 17.734375 -6 L 5.234375 -6 L 2.53125 0 L 0.0625 0 L 10.328125 -22.453125 L 12.671875 -22.453125 L 22.9375 0 L 20.4375 0 Z M 16.875 -7.921875 L 11.484375 -19.984375 L 6.09375 -7.921875 Z M 16.875 -7.921875 "/></g></g></g><g fill="#ffffff" fill-opacity="1"><g transform="translate(123.09616, 25.495674)"><g><path d="M 18.984375 0 L 13.859375 -7.21875 C 13.273438 -7.15625 12.675781 -7.125 12.0625 -7.125 L 6.03125 -7.125 L 6.03125 0 L 3.65625 0 L 3.65625 -22.453125 L 12.0625 -22.453125 C 14.925781 -22.453125 17.171875 -21.765625 18.796875 -20.390625 C 20.421875 -19.023438 21.234375 -17.144531 21.234375 -14.75 C 21.234375 -13 20.789062 -11.519531 19.90625 -10.3125 C 19.019531 -9.101562 17.753906 -8.234375 16.109375 -7.703125 L 21.59375 0 Z M 12 -9.140625 C 14.21875 -9.140625 15.914062 -9.628906 17.09375 -10.609375 C 18.269531 -11.597656 18.859375 -12.976562 18.859375 -14.75 C 18.859375 -16.570312 18.269531 -17.96875 17.09375 -18.9375 C 15.914062 -19.914062 14.21875 -20.40625 12 -20.40625 L 6.03125 -20.40625 L 6.03125 -9.140625 Z M 12 -9.140625 "/></g></g></g><g fill="#ffffff" fill-opacity="1"><g transform="translate(147.060425, 25.495674)"><g><path d="M 3.65625 -22.453125 L 12.796875 -22.453125 C 15.171875 -22.453125 17.265625 -21.972656 19.078125 -21.015625 C 20.898438 -20.066406 22.3125 -18.742188 23.3125 -17.046875 C 24.320312 -15.347656 24.828125 -13.410156 24.828125 -11.234375 C 24.828125 -9.046875 24.320312 -7.101562 23.3125 -5.40625 C 22.3125 -3.707031 20.898438 -2.378906 19.078125 -1.421875 C 17.265625 -0.472656 15.171875 0 12.796875 0 L 3.65625 0 Z M 12.671875 -2.046875 C 14.640625 -2.046875 16.359375 -2.4375 17.828125 -3.21875 C 19.304688 -4 20.453125 -5.078125 21.265625 -6.453125 C 22.078125 -7.835938 22.484375 -9.429688 22.484375 -11.234375 C 22.484375 -13.023438 22.078125 -14.609375 21.265625 -15.984375 C 20.453125 -17.367188 19.304688 -18.453125 17.828125 -19.234375 C 16.359375 -20.015625 14.640625 -20.40625 12.671875 -20.40625 L 6.03125 -20.40625 L 6.03125 -2.046875 Z M 12.671875 -2.046875 "/></g></g></g><g fill="#ffffff" fill-opacity="1"><g transform="translate(174.328998, 25.495674)"><g><path d="M 13.46875 0.1875 C 11.25 0.1875 9.234375 -0.304688 7.421875 -1.296875 C 5.617188 -2.296875 4.207031 -3.660156 3.1875 -5.390625 C 2.175781 -7.117188 1.671875 -9.066406 1.671875 -11.234375 C 1.671875 -13.390625 2.175781 -15.332031 3.1875 -17.0625 C 4.207031 -18.789062 5.617188 -20.148438 7.421875 -21.140625 C 9.234375 -22.140625 11.25 -22.640625 13.46875 -22.640625 C 15.695312 -22.640625 17.703125 -22.148438 19.484375 -21.171875 C 21.273438 -20.191406 22.679688 -18.828125 23.703125 -17.078125 C 24.734375 -15.335938 25.25 -13.390625 25.25 -11.234375 C 25.25 -9.066406 24.734375 -7.113281 23.703125 -5.375 C 22.679688 -3.632812 21.273438 -2.269531 19.484375 -1.28125 C 17.703125 -0.300781 15.695312 0.1875 13.46875 0.1875 Z M 13.46875 -1.921875 C 15.25 -1.921875 16.851562 -2.320312 18.28125 -3.125 C 19.71875 -3.925781 20.84375 -5.035156 21.65625 -6.453125 C 22.46875 -7.878906 22.875 -9.472656 22.875 -11.234375 C 22.875 -12.984375 22.46875 -14.566406 21.65625 -15.984375 C 20.84375 -17.410156 19.71875 -18.523438 18.28125 -19.328125 C 16.851562 -20.128906 15.25 -20.53125 13.46875 -20.53125 C 11.695312 -20.53125 10.085938 -20.128906 8.640625 -19.328125 C 7.203125 -18.523438 6.070312 -17.410156 5.25 -15.984375 C 4.425781 -14.566406 4.015625 -12.984375 4.015625 -11.234375 C 4.015625 -9.472656 4.425781 -7.878906 5.25 -6.453125 C 6.070312 -5.035156 7.203125 -3.925781 8.640625 -3.125 C 10.085938 -2.320312 11.695312 -1.921875 13.46875 -1.921875 Z M 13.46875 -1.921875 "/></g></g></g><g fill="#ffffff" fill-opacity="1"><g transform="translate(16.161765, 53.980471)"><g><path d="M 17.734375 -6 L 5.234375 -6 L 2.53125 0 L 0.0625 0 L 10.328125 -22.453125 L 12.671875 -22.453125 L 22.9375 0 L 20.4375 0 Z M 16.875 -7.921875 L 11.484375 -19.984375 L 6.09375 -7.921875 Z M 16.875 -7.921875 "/></g></g></g><g fill="#ffffff" fill-opacity="1"><g transform="translate(39.933557, 53.980471)"><g><path d="M 17.796875 -11.578125 C 19.273438 -11.253906 20.414062 -10.617188 21.21875 -9.671875 C 22.019531 -8.722656 22.421875 -7.5 22.421875 -6 C 22.421875 -4.070312 21.707031 -2.585938 20.28125 -1.546875 C 18.863281 -0.515625 16.765625 0 13.984375 0 L 3.65625 0 L 3.65625 -22.453125 L 13.34375 -22.453125 C 15.84375 -22.453125 17.78125 -21.945312 19.15625 -20.9375 C 20.539062 -19.9375 21.234375 -18.519531 21.234375 -16.6875 C 21.234375 -15.4375 20.925781 -14.378906 20.3125 -13.515625 C 19.707031 -12.648438 18.867188 -12.003906 17.796875 -11.578125 Z M 6.03125 -20.5 L 6.03125 -12.34375 L 13.1875 -12.34375 C 15 -12.34375 16.394531 -12.691406 17.375 -13.390625 C 18.363281 -14.085938 18.859375 -15.097656 18.859375 -16.421875 C 18.859375 -17.742188 18.363281 -18.753906 17.375 -19.453125 C 16.394531 -20.148438 15 -20.5 13.1875 -20.5 Z M 13.953125 -1.953125 C 15.960938 -1.953125 17.476562 -2.296875 18.5 -2.984375 C 19.53125 -3.671875 20.046875 -4.738281 20.046875 -6.1875 C 20.046875 -8.988281 18.015625 -10.390625 13.953125 -10.390625 L 6.03125 -10.390625 L 6.03125 -1.953125 Z M 13.953125 -1.953125 "/></g></g></g><g fill="#ffffff" fill-opacity="1"><g transform="translate(64.892326, 53.980471)"><g><path d="M 19.53125 -2.046875 L 19.53125 0 L 3.65625 0 L 3.65625 -22.453125 L 19.046875 -22.453125 L 19.046875 -20.40625 L 6.03125 -20.40625 L 6.03125 -12.421875 L 17.640625 -12.421875 L 17.640625 -10.390625 L 6.03125 -10.390625 L 6.03125 -2.046875 Z M 19.53125 -2.046875 "/></g></g></g><g fill="#ffffff" fill-opacity="1"><g transform="translate(87.124245, 53.980471)"><g><path d="M 3.65625 -22.453125 L 6.03125 -22.453125 L 6.03125 -2.046875 L 18.609375 -2.046875 L 18.609375 0 L 3.65625 0 Z M 3.65625 -22.453125 "/></g></g></g><g fill="#ffffff" fill-opacity="1"><g transform="translate(106.789731, 53.980471)"><g><path d="M 17.734375 -6 L 5.234375 -6 L 2.53125 0 L 0.0625 0 L 10.328125 -22.453125 L 12.671875 -22.453125 L 22.9375 0 L 20.4375 0 Z M 16.875 -7.921875 L 11.484375 -19.984375 L 6.09375 -7.921875 Z M 16.875 -7.921875 "/></g></g></g><g fill="#ffffff" fill-opacity="1"><g transform="translate(130.561517, 53.980471)"><g><path d="M 18.984375 0 L 13.859375 -7.21875 C 13.273438 -7.15625 12.675781 -7.125 12.0625 -7.125 L 6.03125 -7.125 L 6.03125 0 L 3.65625 0 L 3.65625 -22.453125 L 12.0625 -22.453125 C 14.925781 -22.453125 17.171875 -21.765625 18.796875 -20.390625 C 20.421875 -19.023438 21.234375 -17.144531 21.234375 -14.75 C 21.234375 -13 20.789062 -11.519531 19.90625 -10.3125 C 19.019531 -9.101562 17.753906 -8.234375 16.109375 -7.703125 L 21.59375 0 Z M 12 -9.140625 C 14.21875 -9.140625 15.914062 -9.628906 17.09375 -10.609375 C 18.269531 -11.597656 18.859375 -12.976562 18.859375 -14.75 C 18.859375 -16.570312 18.269531 -17.96875 17.09375 -18.9375 C 15.914062 -19.914062 14.21875 -20.40625 12 -20.40625 L 6.03125 -20.40625 L 6.03125 -9.140625 Z M 12 -9.140625 "/></g></g></g><g fill="#ffffff" fill-opacity="1"><g transform="translate(154.525793, 53.980471)"><g><path d="M 3.65625 -22.453125 L 12.796875 -22.453125 C 15.171875 -22.453125 17.265625 -21.972656 19.078125 -21.015625 C 20.898438 -20.066406 22.3125 -18.742188 23.3125 -17.046875 C 24.320312 -15.347656 24.828125 -13.410156 24.828125 -11.234375 C 24.828125 -9.046875 24.320312 -7.101562 23.3125 -5.40625 C 22.3125 -3.707031 20.898438 -2.378906 19.078125 -1.421875 C 17.265625 -0.472656 15.171875 0 12.796875 0 L 3.65625 0 Z M 12.671875 -2.046875 C 14.640625 -2.046875 16.359375 -2.4375 17.828125 -3.21875 C 19.304688 -4 20.453125 -5.078125 21.265625 -6.453125 C 22.078125 -7.835938 22.484375 -9.429688 22.484375 -11.234375 C 22.484375 -13.023438 22.078125 -14.609375 21.265625 -15.984375 C 20.453125 -17.367188 19.304688 -18.453125 17.828125 -19.234375 C 16.359375 -20.015625 14.640625 -20.40625 12.671875 -20.40625 L 6.03125 -20.40625 L 6.03125 -2.046875 Z M 12.671875 -2.046875 "/></g></g></g><g fill="#ffffff" fill-opacity="1"><g transform="translate(181.794367, 53.980471)"><g><path d="M 13.46875 0.1875 C 11.25 0.1875 9.234375 -0.304688 7.421875 -1.296875 C 5.617188 -2.296875 4.207031 -3.660156 3.1875 -5.390625 C 2.175781 -7.117188 1.671875 -9.066406 1.671875 -11.234375 C 1.671875 -13.390625 2.175781 -15.332031 3.1875 -17.0625 C 4.207031 -18.789062 5.617188 -20.148438 7.421875 -21.140625 C 9.234375 -22.140625 11.25 -22.640625 13.46875 -22.640625 C 15.695312 -22.640625 17.703125 -22.148438 19.484375 -21.171875 C 21.273438 -20.191406 22.679688 -18.828125 23.703125 -17.078125 C 24.734375 -15.335938 25.25 -13.390625 25.25 -11.234375 C 25.25 -9.066406 24.734375 -7.113281 23.703125 -5.375 C 22.679688 -3.632812 21.273438 -2.269531 19.484375 -1.28125 C 17.703125 -0.300781 15.695312 0.1875 13.46875 0.1875 Z M 13.46875 -1.921875 C 15.25 -1.921875 16.851562 -2.320312 18.28125 -3.125 C 19.71875 -3.925781 20.84375 -5.035156 21.65625 -6.453125 C 22.46875 -7.878906 22.875 -9.472656 22.875 -11.234375 C 22.875 -12.984375 22.46875 -14.566406 21.65625 -15.984375 C 20.84375 -17.410156 19.71875 -18.523438 18.28125 -19.328125 C 16.851562 -20.128906 15.25 -20.53125 13.46875 -20.53125 C 11.695312 -20.53125 10.085938 -20.128906 8.640625 -19.328125 C 7.203125 -18.523438 6.070312 -17.410156 5.25 -15.984375 C 4.425781 -14.566406 4.015625 -12.984375 4.015625 -11.234375 C 4.015625 -9.472656 4.425781 -7.878906 5.25 -6.453125 C 6.070312 -5.035156 7.203125 -3.925781 8.640625 -3.125 C 10.085938 -2.320312 11.695312 -1.921875 13.46875 -1.921875 Z M 13.46875 -1.921875 "/></g></g></g><g clip-path="url(#d1e547efa1)"><g fill="#ffffff" fill-opacity="1"><g transform="translate(27.335316, 74.08179)"><g><path d="M 3.125 0 L 4.878906 0 L 7.210938 -8.980469 L 7.238281 -8.980469 L 9.542969 0 L 11.3125 0 L 14.277344 -10.148438 L 13.039062 -10.148438 L 10.433594 -1.164062 L 10.40625 -1.164062 L 8.144531 -10.148438 L 6.289062 -10.148438 L 4.042969 -1.164062 L 4.015625 -1.164062 L 1.382812 -10.148438 L 0.144531 -10.148438 Z M 3.125 0 "/></g></g></g></g><g clip-path="url(#7fdac038a3)"><g fill="#ffffff" fill-opacity="1"><g transform="translate(45.388255, 74.08179)"><g><path d="M 0.863281 0 L 7.945312 0 L 7.945312 -1.066406 L 2.03125 -1.066406 L 2.03125 -4.71875 L 7.226562 -4.71875 L 7.226562 -5.757812 L 2.03125 -5.757812 L 2.03125 -9.082031 L 7.800781 -9.082031 L 7.800781 -10.148438 L 0.863281 -10.148438 Z M 0.863281 0 "/></g></g></g></g><g clip-path="url(#753b766391)"><g fill="#ffffff" fill-opacity="1"><g transform="translate(57.328447, 74.08179)"><g><path d="M 0.863281 0 L 5.527344 0 C 7.730469 0 8.996094 -1.035156 8.996094 -2.835938 C 8.996094 -4.117188 8.304688 -4.980469 7.082031 -5.238281 L 7.082031 -5.253906 C 8.089844 -5.527344 8.679688 -6.304688 8.679688 -7.410156 C 8.679688 -9.152344 7.527344 -10.148438 5.511719 -10.148438 L 0.863281 -10.148438 Z M 2.058594 -5.757812 L 2.058594 -9.082031 L 5.367188 -9.082031 C 6.722656 -9.082031 7.5 -8.460938 7.5 -7.410156 C 7.5 -6.363281 6.722656 -5.757812 5.367188 -5.757812 Z M 2.058594 -1.066406 L 2.058594 -4.691406 L 5.367188 -4.691406 C 6.910156 -4.691406 7.816406 -4.03125 7.816406 -2.894531 C 7.816406 -1.726562 6.910156 -1.066406 5.367188 -1.066406 Z M 2.058594 -1.066406 "/></g></g></g></g><g clip-path="url(#a490c71d2e)"><g fill="#ffffff" fill-opacity="1"><g transform="translate(70.390511, 74.08179)"><g/></g></g></g><g clip-path="url(#fc45220316)"><g fill="#ffffff" fill-opacity="1"><g transform="translate(77.943927, 74.08179)"><g><path d="M 0.863281 0 L 4.546875 0 C 7.972656 0 9.875 -1.8125 9.875 -5.066406 C 9.875 -8.332031 7.972656 -10.148438 4.546875 -10.148438 L 0.863281 -10.148438 Z M 2.058594 -1.066406 L 2.058594 -9.082031 L 4.546875 -9.082031 C 7.195312 -9.082031 8.679688 -7.65625 8.679688 -5.066406 C 8.679688 -2.488281 7.195312 -1.066406 4.546875 -1.066406 Z M 2.058594 -1.066406 "/></g></g></g></g><g clip-path="url(#a55c438878)"><g fill="#ffffff" fill-opacity="1"><g transform="translate(91.955266, 74.08179)"><g><path d="M 0.863281 0 L 7.945312 0 L 7.945312 -1.066406 L 2.03125 -1.066406 L 2.03125 -4.71875 L 7.226562 -4.71875 L 7.226562 -5.757812 L 2.03125 -5.757812 L 2.03125 -9.082031 L 7.800781 -9.082031 L 7.800781 -10.148438 L 0.863281 -10.148438 Z M 0.863281 0 "/></g></g></g></g><g clip-path="url(#c3267b2769)"><g fill="#ffffff" fill-opacity="1"><g transform="translate(103.895456, 74.08179)"><g><path d="M 0.863281 0 L 5.527344 0 C 7.730469 0 8.996094 -1.035156 8.996094 -2.835938 C 8.996094 -4.117188 8.304688 -4.980469 7.082031 -5.238281 L 7.082031 -5.253906 C 8.089844 -5.527344 8.679688 -6.304688 8.679688 -7.410156 C 8.679688 -9.152344 7.527344 -10.148438 5.511719 -10.148438 L 0.863281 -10.148438 Z M 2.058594 -5.757812 L 2.058594 -9.082031 L 5.367188 -9.082031 C 6.722656 -9.082031 7.5 -8.460938 7.5 -7.410156 C 7.5 -6.363281 6.722656 -5.757812 5.367188 -5.757812 Z M 2.058594 -1.066406 L 2.058594 -4.691406 L 5.367188 -4.691406 C 6.910156 -4.691406 7.816406 -4.03125 7.816406 -2.894531 C 7.816406 -1.726562 6.910156 -1.066406 5.367188 -1.066406 Z M 2.058594 -1.066406 "/></g></g></g></g><g clip-path="url(#01332f6bce)"><g fill="#ffffff" fill-opacity="1"><g transform="translate(116.957517, 74.08179)"><g><path d="M 0.863281 0 L 7.945312 0 L 7.945312 -1.066406 L 2.03125 -1.066406 L 2.03125 -4.71875 L 7.226562 -4.71875 L 7.226562 -5.757812 L 2.03125 -5.757812 L 2.03125 -9.082031 L 7.800781 -9.082031 L 7.800781 -10.148438 L 0.863281 -10.148438 Z M 0.863281 0 "/></g></g></g></g><g clip-path="url(#a064e969e3)"><g fill="#ffffff" fill-opacity="1"><g transform="translate(128.897712, 74.08179)"><g><path d="M 0.863281 0 L 7.253906 0 L 7.253906 -1.066406 L 2.058594 -1.066406 L 2.058594 -10.148438 L 0.863281 -10.148438 Z M 0.863281 0 "/></g></g></g></g><g clip-path="url(#ad7ff53912)"><g fill="#ffffff" fill-opacity="1"><g transform="translate(139.93179, 74.08179)"><g><path d="M 5.957031 0.359375 C 9.269531 0.359375 11.425781 -1.800781 11.425781 -5.066406 C 11.425781 -8.347656 9.269531 -10.507812 5.957031 -10.507812 C 2.664062 -10.507812 0.503906 -8.347656 0.503906 -5.066406 C 0.503906 -1.800781 2.664062 0.359375 5.957031 0.359375 Z M 5.957031 -0.707031 C 3.382812 -0.707031 1.699219 -2.445312 1.699219 -5.066406 C 1.699219 -7.699219 3.382812 -9.441406 5.957031 -9.441406 C 8.535156 -9.441406 10.21875 -7.699219 10.21875 -5.066406 C 10.21875 -2.445312 8.535156 -0.707031 5.957031 -0.707031 Z M 5.957031 -0.707031 "/></g></g></g></g><g clip-path="url(#df5991a713)"><g fill="#ffffff" fill-opacity="1"><g transform="translate(155.496489, 74.08179)"><g><path d="M 0.863281 0 L 2.03125 0 L 2.03125 -4 L 5.023438 -4 C 7.183594 -4 8.707031 -5.269531 8.707031 -7.066406 C 8.707031 -8.867188 7.195312 -10.148438 5.023438 -10.148438 L 0.863281 -10.148438 Z M 2.03125 -5.082031 L 2.03125 -9.082031 L 5.023438 -9.082031 C 6.492188 -9.082031 7.511719 -8.246094 7.511719 -7.066406 C 7.511719 -5.902344 6.476562 -5.082031 5.023438 -5.082031 Z M 2.03125 -5.082031 "/></g></g></g></g><g clip-path="url(#a8bfca4797)"><g fill="#ffffff" fill-opacity="1"><g transform="translate(168.127069, 74.08179)"><g><path d="M 0.863281 0 L 7.945312 0 L 7.945312 -1.066406 L 2.03125 -1.066406 L 2.03125 -4.71875 L 7.226562 -4.71875 L 7.226562 -5.757812 L 2.03125 -5.757812 L 2.03125 -9.082031 L 7.800781 -9.082031 L 7.800781 -10.148438 L 0.863281 -10.148438 Z M 0.863281 0 "/></g></g></g></g><g clip-path="url(#3b0dfb7f9e)"><g fill="#ffffff" fill-opacity="1"><g transform="translate(180.067264, 74.08179)"><g><path d="M 8.203125 0.289062 C 8.910156 0.289062 9.511719 -0.101562 9.929688 -0.675781 L 9.328125 -1.382812 C 9.097656 -0.980469 8.765625 -0.71875 8.433594 -0.71875 C 8.117188 -0.71875 7.914062 -0.964844 7.828125 -1.308594 L 7.324219 -3.136719 C 7.152344 -3.742188 6.808594 -4.230469 6.261719 -4.503906 L 6.261719 -4.519531 C 7.957031 -4.75 9.007812 -5.828125 9.007812 -7.238281 C 9.007812 -8.9375 7.511719 -10.148438 5.410156 -10.148438 L 0.863281 -10.148438 L 0.863281 0 L 2.058594 0 L 2.058594 -4.289062 L 4.621094 -4.289062 C 5.3125 -4.289062 5.902344 -3.769531 6.117188 -3.023438 L 6.734375 -0.890625 C 6.9375 -0.203125 7.398438 0.289062 8.203125 0.289062 Z M 2.058594 -5.355469 L 2.058594 -9.082031 L 5.410156 -9.082031 C 6.820312 -9.082031 7.816406 -8.304688 7.816406 -7.210938 C 7.816406 -6.117188 6.820312 -5.355469 5.410156 -5.355469 Z M 2.058594 -5.355469 "/></g></g></g></g><g clip-path="url(#7d75dd4935)"><g fill="#ffffff" fill-opacity="1"><g transform="translate(193.629377, 74.08179)"><g/></g></g></g></svg>