<svg xmlns="http://www.w3.org/2000/svg" xmlns:xlink="http://www.w3.org/1999/xlink" width="465" zoomAndPan="magnify" viewBox="0 0 348.75 92.249997" height="123" preserveAspectRatio="xMidYMid meet" version="1.0"><defs><g/></defs><g fill="#ffffff" fill-opacity="1"><g transform="translate(89.88421, 77.615356)"><g><path d="M 8.4375 -11.0625 L 6.4375 0 L 5.0625 0 L 3.9375 -5.40625 L 2.796875 0 L 1.4375 0 L -0.53125 -11.0625 L 0.6875 -11.0625 L 2.25 -1.953125 L 3.359375 -7.90625 L 4.515625 -7.90625 L 5.625 -1.953125 L 7.1875 -11.0625 Z M 8.4375 -11.0625 "/></g></g></g><g fill="#ffffff" fill-opacity="1"><g transform="translate(103.175506, 77.615356)"><g><path d="M 7.484375 0 L 0.421875 0 L 0.421875 -11.0625 L 7.484375 -11.0625 L 7.484375 -10.0625 L 1.578125 -10.0625 L 1.578125 -6.109375 L 5.9375 -6.109375 L 5.9375 -5.125 L 1.578125 -5.125 L 1.578125 -0.984375 L 7.484375 -0.984375 Z M 7.484375 0 "/></g></g></g><g fill="#ffffff" fill-opacity="1"><g transform="translate(116.466802, 77.615356)"><g><path d="M 7.890625 -3.15625 C 7.890625 -2.101562 7.546875 -1.3125 6.859375 -0.78125 C 6.171875 -0.257812 5.195312 0 3.9375 0 L 0.421875 0 L 0.421875 -11.0625 L 3.75 -11.0625 C 4.207031 -11.0625 4.660156 -11.019531 5.109375 -10.9375 C 5.554688 -10.863281 5.957031 -10.722656 6.3125 -10.515625 C 6.664062 -10.304688 6.953125 -10.015625 7.171875 -9.640625 C 7.390625 -9.273438 7.5 -8.796875 7.5 -8.203125 C 7.5 -7.046875 6.925781 -6.257812 5.78125 -5.84375 C 7.1875 -5.414062 7.890625 -4.519531 7.890625 -3.15625 Z M 6.34375 -8.203125 C 6.34375 -8.585938 6.257812 -8.90625 6.09375 -9.15625 C 5.925781 -9.40625 5.710938 -9.59375 5.453125 -9.71875 C 5.203125 -9.851562 4.925781 -9.941406 4.625 -9.984375 C 4.320312 -10.035156 4.03125 -10.0625 3.75 -10.0625 L 1.578125 -10.0625 L 1.578125 -6.3125 L 3.75 -6.3125 C 4.0625 -6.3125 4.367188 -6.332031 4.671875 -6.375 C 4.984375 -6.425781 5.257812 -6.519531 5.5 -6.65625 C 5.738281 -6.800781 5.9375 -6.992188 6.09375 -7.234375 C 6.257812 -7.484375 6.34375 -7.804688 6.34375 -8.203125 Z M 6.71875 -3.15625 C 6.71875 -3.925781 6.46875 -4.484375 5.96875 -4.828125 C 5.476562 -5.171875 4.800781 -5.34375 3.9375 -5.34375 L 1.578125 -5.34375 L 1.578125 -0.984375 L 3.9375 -0.984375 C 4.800781 -0.984375 5.476562 -1.164062 5.96875 -1.53125 C 6.46875 -1.894531 6.71875 -2.4375 6.71875 -3.15625 Z M 6.71875 -3.15625 "/></g></g></g><g fill="#ffffff" fill-opacity="1"><g transform="translate(129.758098, 77.615356)"><g/></g></g><g fill="#ffffff" fill-opacity="1"><g transform="translate(143.049394, 77.615356)"><g><path d="M 8.265625 -5.515625 C 8.265625 -4.773438 8.1875 -4.070312 8.03125 -3.40625 C 7.875 -2.738281 7.625 -2.148438 7.28125 -1.640625 C 6.9375 -1.128906 6.492188 -0.726562 5.953125 -0.4375 C 5.421875 -0.144531 4.773438 0 4.015625 0 L 0.421875 0 L 0.421875 -11.0625 L 4.015625 -11.0625 C 4.765625 -11.0625 5.40625 -10.910156 5.9375 -10.609375 C 6.476562 -10.304688 6.921875 -9.898438 7.265625 -9.390625 C 7.609375 -8.878906 7.859375 -8.289062 8.015625 -7.625 C 8.179688 -6.957031 8.265625 -6.253906 8.265625 -5.515625 Z M 7.109375 -5.515625 C 7.109375 -6.960938 6.832031 -8.082031 6.28125 -8.875 C 5.738281 -9.664062 4.984375 -10.0625 4.015625 -10.0625 L 1.578125 -10.0625 L 1.578125 -0.984375 L 4.015625 -0.984375 C 4.984375 -0.984375 5.738281 -1.375 6.28125 -2.15625 C 6.832031 -2.945312 7.109375 -4.066406 7.109375 -5.515625 Z M 7.109375 -5.515625 "/></g></g></g><g fill="#ffffff" fill-opacity="1"><g transform="translate(156.340694, 77.615356)"><g><path d="M 7.484375 0 L 0.421875 0 L 0.421875 -11.0625 L 7.484375 -11.0625 L 7.484375 -10.0625 L 1.578125 -10.0625 L 1.578125 -6.109375 L 5.9375 -6.109375 L 5.9375 -5.125 L 1.578125 -5.125 L 1.578125 -0.984375 L 7.484375 -0.984375 Z M 7.484375 0 "/></g></g></g><g fill="#ffffff" fill-opacity="1"><g transform="translate(169.631993, 77.615356)"><g><path d="M 8.4375 -11.0625 L 4.734375 0 L 3.15625 0 L -0.5 -11.0625 L 0.734375 -11.0625 L 3.953125 -1.171875 L 7.171875 -11.0625 Z M 8.4375 -11.0625 "/></g></g></g><g fill="#ffffff" fill-opacity="1"><g transform="translate(182.923293, 77.615356)"><g><path d="M 7.484375 0 L 0.421875 0 L 0.421875 -11.0625 L 7.484375 -11.0625 L 7.484375 -10.0625 L 1.578125 -10.0625 L 1.578125 -6.109375 L 5.9375 -6.109375 L 5.9375 -5.125 L 1.578125 -5.125 L 1.578125 -0.984375 L 7.484375 -0.984375 Z M 7.484375 0 "/></g></g></g><g fill="#ffffff" fill-opacity="1"><g transform="translate(196.214592, 77.615356)"><g><path d="M 7.484375 0 L 0.421875 0 L 0.421875 -11.0625 L 1.578125 -11.0625 L 1.578125 -0.984375 L 7.484375 -0.984375 Z M 7.484375 0 "/></g></g></g><g fill="#ffffff" fill-opacity="1"><g transform="translate(209.505891, 77.615356)"><g><path d="M 8.203125 -5.515625 C 8.203125 -4.773438 8.125 -4.0625 7.96875 -3.375 C 7.8125 -2.6875 7.566406 -2.078125 7.234375 -1.546875 C 6.898438 -1.023438 6.460938 -0.601562 5.921875 -0.28125 C 5.390625 0.03125 4.734375 0.1875 3.953125 0.1875 C 3.179688 0.1875 2.523438 0.03125 1.984375 -0.28125 C 1.441406 -0.601562 1.003906 -1.023438 0.671875 -1.546875 C 0.335938 -2.078125 0.0976562 -2.6875 -0.046875 -3.375 C -0.203125 -4.0625 -0.28125 -4.773438 -0.28125 -5.515625 C -0.28125 -6.253906 -0.203125 -6.96875 -0.046875 -7.65625 C 0.0976562 -8.351562 0.335938 -8.96875 0.671875 -9.5 C 1.015625 -10.03125 1.457031 -10.453125 2 -10.765625 C 2.539062 -11.085938 3.191406 -11.25 3.953125 -11.25 C 4.722656 -11.25 5.375 -11.085938 5.90625 -10.765625 C 6.445312 -10.453125 6.882812 -10.03125 7.21875 -9.5 C 7.550781 -8.96875 7.796875 -8.351562 7.953125 -7.65625 C 8.117188 -6.96875 8.203125 -6.253906 8.203125 -5.515625 Z M 7.03125 -5.515625 C 7.03125 -6.242188 6.957031 -6.898438 6.8125 -7.484375 C 6.675781 -8.066406 6.476562 -8.566406 6.21875 -8.984375 C 5.957031 -9.398438 5.632812 -9.710938 5.25 -9.921875 C 4.875 -10.140625 4.441406 -10.25 3.953125 -10.25 C 3.347656 -10.25 2.847656 -10.109375 2.453125 -9.828125 C 2.066406 -9.546875 1.753906 -9.175781 1.515625 -8.71875 C 1.273438 -8.257812 1.109375 -7.75 1.015625 -7.1875 C 0.921875 -6.632812 0.875 -6.078125 0.875 -5.515625 C 0.875 -4.960938 0.921875 -4.40625 1.015625 -3.84375 C 1.109375 -3.28125 1.273438 -2.773438 1.515625 -2.328125 C 1.753906 -1.878906 2.066406 -1.507812 2.453125 -1.21875 C 2.847656 -0.9375 3.347656 -0.796875 3.953125 -0.796875 C 4.554688 -0.796875 5.054688 -0.9375 5.453125 -1.21875 C 5.847656 -1.507812 6.160156 -1.878906 6.390625 -2.328125 C 6.628906 -2.773438 6.796875 -3.28125 6.890625 -3.84375 C 6.984375 -4.40625 7.03125 -4.960938 7.03125 -5.515625 Z M 7.03125 -5.515625 "/></g></g></g><g fill="#ffffff" fill-opacity="1"><g transform="translate(222.797191, 77.615356)"><g><path d="M 7.890625 -7.90625 C 7.890625 -6.832031 7.550781 -6.035156 6.875 -5.515625 C 6.207031 -4.992188 5.273438 -4.734375 4.078125 -4.734375 L 1.578125 -4.734375 L 1.578125 0 L 0.421875 0 L 0.421875 -11.0625 L 4.0625 -11.0625 C 5.269531 -11.0625 6.207031 -10.796875 6.875 -10.265625 C 7.550781 -9.734375 7.890625 -8.945312 7.890625 -7.90625 Z M 6.71875 -7.90625 C 6.71875 -8.664062 6.476562 -9.210938 6 -9.546875 C 5.519531 -9.890625 4.878906 -10.0625 4.078125 -10.0625 L 1.578125 -10.0625 L 1.578125 -5.734375 L 4.078125 -5.734375 C 4.878906 -5.734375 5.519531 -5.898438 6 -6.234375 C 6.476562 -6.578125 6.71875 -7.132812 6.71875 -7.90625 Z M 6.71875 -7.90625 "/></g></g></g><g fill="#ffffff" fill-opacity="1"><g transform="translate(236.08849, 77.615356)"><g><path d="M 7.484375 0 L 0.421875 0 L 0.421875 -11.0625 L 7.484375 -11.0625 L 7.484375 -10.0625 L 1.578125 -10.0625 L 1.578125 -6.109375 L 5.9375 -6.109375 L 5.9375 -5.125 L 1.578125 -5.125 L 1.578125 -0.984375 L 7.484375 -0.984375 Z M 7.484375 0 "/></g></g></g><g fill="#ffffff" fill-opacity="1"><g transform="translate(249.37979, 77.615356)"><g><path d="M 8 0 L 6.53125 0 L 3.296875 -4.734375 L 1.578125 -4.734375 L 1.578125 0 L 0.421875 0 L 0.421875 -11.0625 L 4.0625 -11.0625 C 5.269531 -11.0625 6.207031 -10.796875 6.875 -10.265625 C 7.550781 -9.734375 7.890625 -8.945312 7.890625 -7.90625 C 7.890625 -7.4375 7.804688 -7.015625 7.640625 -6.640625 C 7.472656 -6.273438 7.25 -5.960938 6.96875 -5.703125 C 6.6875 -5.441406 6.347656 -5.234375 5.953125 -5.078125 C 5.554688 -4.921875 5.128906 -4.828125 4.671875 -4.796875 Z M 6.671875 -7.90625 C 6.671875 -8.65625 6.4375 -9.203125 5.96875 -9.546875 C 5.507812 -9.890625 4.875 -10.0625 4.0625 -10.0625 L 1.578125 -10.0625 L 1.578125 -5.734375 L 4.0625 -5.734375 C 4.875 -5.734375 5.507812 -5.898438 5.96875 -6.234375 C 6.4375 -6.578125 6.671875 -7.132812 6.671875 -7.90625 Z M 6.671875 -7.90625 "/></g></g></g><g fill="#ffffff" fill-opacity="1"><g transform="translate(10.440833, 46.832989)"><g><path d="M 17.234375 -30.089844 C 17.234375 -30.476562 17.078125 -30.707031 16.621094 -30.707031 L 2.496094 -30.707031 C 2.148438 -30.707031 1.917969 -30.476562 1.917969 -30.089844 L 1.917969 -0.613281 C 1.917969 -0.230469 2.148438 0 2.496094 0 L 16.621094 0 C 17.078125 0 17.234375 -0.230469 17.234375 -0.613281 L 17.234375 -4.453125 C 17.234375 -4.875 17.078125 -5.066406 16.621094 -5.066406 L 7.023438 -5.066406 L 7.023438 -12.820312 L 14.355469 -12.820312 C 14.738281 -12.820312 14.96875 -13.050781 14.96875 -13.472656 L 14.96875 -17.273438 C 14.96875 -17.695312 14.738281 -17.925781 14.355469 -17.925781 L 7.023438 -17.925781 L 7.023438 -25.601562 L 16.621094 -25.601562 C 17.078125 -25.601562 17.234375 -25.867188 17.234375 -26.253906 Z M 17.234375 -30.089844 "/></g></g></g><g fill="#ffffff" fill-opacity="1"><g transform="translate(30.931803, 46.832989)"><g><path d="M 1.917969 -0.613281 C 1.917969 -0.191406 2.109375 0 2.53125 0 L 11.746094 0 C 15.351562 0 17.273438 -1.917969 17.273438 -5.527344 L 17.273438 -25.140625 C 17.273438 -28.746094 15.351562 -30.707031 11.746094 -30.707031 L 2.53125 -30.707031 C 2.109375 -30.707031 1.917969 -30.476562 1.917969 -30.089844 Z M 7.140625 -5.066406 L 7.140625 -25.640625 L 10.671875 -25.640625 C 11.667969 -25.640625 12.207031 -25.101562 12.207031 -24.066406 L 12.207031 -6.601562 C 12.207031 -5.566406 11.667969 -5.066406 10.671875 -5.066406 Z M 7.140625 -5.066406 "/></g></g></g><g fill="#ffffff" fill-opacity="1"><g transform="translate(51.461148, 46.832989)"><g><path d="M 12.972656 -30.707031 C 12.550781 -30.707031 12.207031 -30.359375 12.207031 -29.9375 L 12.207031 -6.601562 C 12.207031 -5.566406 11.667969 -5.066406 10.671875 -5.066406 L 8.675781 -5.066406 C 7.675781 -5.066406 7.140625 -5.566406 7.140625 -6.601562 L 7.140625 -29.9375 C 7.140625 -30.359375 6.792969 -30.707031 6.371094 -30.707031 L 2.6875 -30.707031 C 2.265625 -30.707031 1.917969 -30.359375 1.917969 -29.9375 L 1.917969 -5.527344 C 1.917969 -1.917969 3.839844 0 7.445312 0 L 11.746094 0 C 15.351562 0 17.273438 -1.917969 17.273438 -5.527344 L 17.273438 -29.9375 C 17.273438 -30.359375 16.925781 -30.707031 16.503906 -30.707031 Z M 12.972656 -30.707031 "/></g></g></g><g fill="#ffffff" fill-opacity="1"><g transform="translate(71.990494, 46.832989)"><g><path d="M 20.417969 0 C 20.878906 0 21.03125 -0.230469 20.957031 -0.652344 L 14.585938 -30.167969 C 14.507812 -30.550781 14.277344 -30.707031 13.933594 -30.707031 L 8.597656 -30.707031 C 8.253906 -30.707031 8.023438 -30.550781 7.945312 -30.167969 L 1.574219 -0.652344 C 1.457031 -0.230469 1.652344 0 2.074219 0 L 6.179688 0 C 6.523438 0 6.714844 -0.191406 6.792969 -0.539062 L 7.828125 -6.140625 L 14.660156 -6.140625 L 15.738281 -0.539062 C 15.8125 -0.191406 16.003906 0 16.351562 0 Z M 13.703125 -10.59375 L 8.789062 -10.59375 L 11.246094 -23.988281 Z M 13.703125 -10.59375 "/></g></g></g><g fill="#ffffff" fill-opacity="1"><g transform="translate(95.819808, 46.832989)"><g><path d="M 17.695312 -25.179688 C 17.695312 -28.785156 15.773438 -30.707031 12.167969 -30.707031 L 2.53125 -30.707031 C 2.148438 -30.707031 1.917969 -30.476562 1.917969 -30.089844 L 1.917969 -0.613281 C 1.917969 -0.230469 2.148438 0 2.53125 0 L 6.523438 0 C 6.910156 0 7.140625 -0.230469 7.140625 -0.613281 L 7.140625 -10.285156 L 9.789062 -10.285156 L 12.359375 -0.539062 C 12.4375 -0.191406 12.628906 0 13.011719 0 L 17.003906 0 C 17.425781 0 17.65625 -0.230469 17.539062 -0.691406 L 14.890625 -10.746094 C 16.734375 -11.554688 17.695312 -13.242188 17.695312 -15.8125 Z M 7.140625 -15.351562 L 7.140625 -25.640625 L 10.9375 -25.640625 C 11.9375 -25.640625 12.472656 -25.101562 12.472656 -24.105469 L 12.472656 -16.886719 C 12.472656 -15.890625 11.9375 -15.351562 10.9375 -15.351562 Z M 7.140625 -15.351562 "/></g></g></g><g fill="#ffffff" fill-opacity="1"><g transform="translate(116.771235, 46.832989)"><g><path d="M 1.917969 -0.613281 C 1.917969 -0.191406 2.109375 0 2.53125 0 L 11.746094 0 C 15.351562 0 17.273438 -1.917969 17.273438 -5.527344 L 17.273438 -25.140625 C 17.273438 -28.746094 15.351562 -30.707031 11.746094 -30.707031 L 2.53125 -30.707031 C 2.109375 -30.707031 1.917969 -30.476562 1.917969 -30.089844 Z M 7.140625 -5.066406 L 7.140625 -25.640625 L 10.671875 -25.640625 C 11.667969 -25.640625 12.207031 -25.101562 12.207031 -24.066406 L 12.207031 -6.601562 C 12.207031 -5.566406 11.667969 -5.066406 10.671875 -5.066406 Z M 7.140625 -5.066406 "/></g></g></g><g fill="#ffffff" fill-opacity="1"><g transform="translate(137.300581, 46.832989)"><g><path d="M 1.917969 -5.527344 C 1.917969 -1.917969 3.839844 0 7.445312 0 L 11.746094 0 C 15.351562 0 17.273438 -1.917969 17.273438 -5.527344 L 17.273438 -25.179688 C 17.273438 -28.785156 15.351562 -30.707031 11.746094 -30.707031 L 7.445312 -30.707031 C 3.839844 -30.707031 1.917969 -28.785156 1.917969 -25.179688 Z M 8.558594 -4.953125 C 7.5625 -4.953125 7.023438 -5.449219 7.023438 -6.488281 L 7.023438 -24.21875 C 7.023438 -25.214844 7.5625 -25.753906 8.558594 -25.753906 L 10.785156 -25.753906 C 11.78125 -25.753906 12.320312 -25.214844 12.320312 -24.21875 L 12.320312 -6.488281 C 12.320312 -5.449219 11.78125 -4.953125 10.785156 -4.953125 Z M 8.558594 -4.953125 "/></g></g></g><g fill="#ffffff" fill-opacity="1"><g transform="translate(157.829932, 46.832989)"><g/></g></g><g fill="#ffffff" fill-opacity="1"><g transform="translate(168.766349, 46.832989)"><g><path d="M 20.417969 0 C 20.878906 0 21.03125 -0.230469 20.957031 -0.652344 L 14.585938 -30.167969 C 14.507812 -30.550781 14.277344 -30.707031 13.933594 -30.707031 L 8.597656 -30.707031 C 8.253906 -30.707031 8.023438 -30.550781 7.945312 -30.167969 L 1.574219 -0.652344 C 1.457031 -0.230469 1.652344 0 2.074219 0 L 6.179688 0 C 6.523438 0 6.714844 -0.191406 6.792969 -0.539062 L 7.828125 -6.140625 L 14.660156 -6.140625 L 15.738281 -0.539062 C 15.8125 -0.191406 16.003906 0 16.351562 0 Z M 13.703125 -10.59375 L 8.789062 -10.59375 L 11.246094 -23.988281 Z M 13.703125 -10.59375 "/></g></g></g><g fill="#ffffff" fill-opacity="1"><g transform="translate(192.595656, 46.832989)"><g><path d="M 17.308594 -25.179688 C 17.308594 -28.785156 15.351562 -30.707031 11.746094 -30.707031 L 2.53125 -30.707031 C 2.148438 -30.707031 1.917969 -30.511719 1.917969 -30.089844 L 1.917969 -0.613281 C 1.917969 -0.230469 2.148438 0 2.53125 0 L 11.746094 0 C 15.351562 0 17.308594 -1.917969 17.308594 -5.527344 L 17.308594 -12.589844 C 17.308594 -14.007812 16.273438 -15.082031 14.890625 -15.3125 L 14.890625 -15.390625 C 16.273438 -15.621094 17.308594 -16.695312 17.308594 -18.117188 Z M 12.207031 -19.382812 C 12.207031 -18.421875 11.667969 -17.886719 10.671875 -17.886719 L 7.175781 -17.886719 L 7.175781 -25.640625 L 10.671875 -25.640625 C 11.707031 -25.640625 12.207031 -25.101562 12.207031 -24.105469 Z M 12.207031 -6.601562 C 12.207031 -5.566406 11.667969 -5.066406 10.671875 -5.066406 L 7.175781 -5.066406 L 7.175781 -12.820312 L 10.671875 -12.820312 C 11.707031 -12.820312 12.207031 -12.28125 12.207031 -11.285156 Z M 12.207031 -6.601562 "/></g></g></g><g fill="#ffffff" fill-opacity="1"><g transform="translate(213.163371, 46.832989)"><g><path d="M 17.234375 -30.089844 C 17.234375 -30.476562 17.078125 -30.707031 16.621094 -30.707031 L 2.496094 -30.707031 C 2.148438 -30.707031 1.917969 -30.476562 1.917969 -30.089844 L 1.917969 -0.613281 C 1.917969 -0.230469 2.148438 0 2.496094 0 L 16.621094 0 C 17.078125 0 17.234375 -0.230469 17.234375 -0.613281 L 17.234375 -4.453125 C 17.234375 -4.875 17.078125 -5.066406 16.621094 -5.066406 L 7.023438 -5.066406 L 7.023438 -12.820312 L 14.355469 -12.820312 C 14.738281 -12.820312 14.96875 -13.050781 14.96875 -13.472656 L 14.96875 -17.273438 C 14.96875 -17.695312 14.738281 -17.925781 14.355469 -17.925781 L 7.023438 -17.925781 L 7.023438 -25.601562 L 16.621094 -25.601562 C 17.078125 -25.601562 17.234375 -25.867188 17.234375 -26.253906 Z M 17.234375 -30.089844 "/></g></g></g><g fill="#ffffff" fill-opacity="1"><g transform="translate(233.654334, 46.832989)"><g><path d="M 7.140625 -5.066406 L 16.273438 -5.066406 C 16.695312 -5.066406 16.886719 -4.835938 16.886719 -4.453125 L 16.886719 -0.613281 C 16.886719 -0.191406 16.695312 0 16.273438 0 L 2.53125 0 C 2.148438 0 1.917969 -0.191406 1.917969 -0.613281 L 1.917969 -30.089844 C 1.917969 -30.476562 2.148438 -30.707031 2.53125 -30.707031 L 6.523438 -30.707031 C 6.945312 -30.707031 7.140625 -30.476562 7.140625 -30.089844 Z M 7.140625 -5.066406 "/></g></g></g><g fill="#ffffff" fill-opacity="1"><g transform="translate(253.799955, 46.832989)"><g><path d="M 20.417969 0 C 20.878906 0 21.03125 -0.230469 20.957031 -0.652344 L 14.585938 -30.167969 C 14.507812 -30.550781 14.277344 -30.707031 13.933594 -30.707031 L 8.597656 -30.707031 C 8.253906 -30.707031 8.023438 -30.550781 7.945312 -30.167969 L 1.574219 -0.652344 C 1.457031 -0.230469 1.652344 0 2.074219 0 L 6.179688 0 C 6.523438 0 6.714844 -0.191406 6.792969 -0.539062 L 7.828125 -6.140625 L 14.660156 -6.140625 L 15.738281 -0.539062 C 15.8125 -0.191406 16.003906 0 16.351562 0 Z M 13.703125 -10.59375 L 8.789062 -10.59375 L 11.246094 -23.988281 Z M 13.703125 -10.59375 "/></g></g></g><g fill="#ffffff" fill-opacity="1"><g transform="translate(277.629261, 46.832989)"><g><path d="M 17.695312 -25.179688 C 17.695312 -28.785156 15.773438 -30.707031 12.167969 -30.707031 L 2.53125 -30.707031 C 2.148438 -30.707031 1.917969 -30.476562 1.917969 -30.089844 L 1.917969 -0.613281 C 1.917969 -0.230469 2.148438 0 2.53125 0 L 6.523438 0 C 6.910156 0 7.140625 -0.230469 7.140625 -0.613281 L 7.140625 -10.285156 L 9.789062 -10.285156 L 12.359375 -0.539062 C 12.4375 -0.191406 12.628906 0 13.011719 0 L 17.003906 0 C 17.425781 0 17.65625 -0.230469 17.539062 -0.691406 L 14.890625 -10.746094 C 16.734375 -11.554688 17.695312 -13.242188 17.695312 -15.8125 Z M 7.140625 -15.351562 L 7.140625 -25.640625 L 10.9375 -25.640625 C 11.9375 -25.640625 12.472656 -25.101562 12.472656 -24.105469 L 12.472656 -16.886719 C 12.472656 -15.890625 11.9375 -15.351562 10.9375 -15.351562 Z M 7.140625 -15.351562 "/></g></g></g><g fill="#ffffff" fill-opacity="1"><g transform="translate(298.580682, 46.832989)"><g><path d="M 1.917969 -0.613281 C 1.917969 -0.191406 2.109375 0 2.53125 0 L 11.746094 0 C 15.351562 0 17.273438 -1.917969 17.273438 -5.527344 L 17.273438 -25.140625 C 17.273438 -28.746094 15.351562 -30.707031 11.746094 -30.707031 L 2.53125 -30.707031 C 2.109375 -30.707031 1.917969 -30.476562 1.917969 -30.089844 Z M 7.140625 -5.066406 L 7.140625 -25.640625 L 10.671875 -25.640625 C 11.667969 -25.640625 12.207031 -25.101562 12.207031 -24.066406 L 12.207031 -6.601562 C 12.207031 -5.566406 11.667969 -5.066406 10.671875 -5.066406 Z M 7.140625 -5.066406 "/></g></g></g><g fill="#ffffff" fill-opacity="1"><g transform="translate(319.110034, 46.832989)"><g><path d="M 1.917969 -5.527344 C 1.917969 -1.917969 3.839844 0 7.445312 0 L 11.746094 0 C 15.351562 0 17.273438 -1.917969 17.273438 -5.527344 L 17.273438 -25.179688 C 17.273438 -28.785156 15.351562 -30.707031 11.746094 -30.707031 L 7.445312 -30.707031 C 3.839844 -30.707031 1.917969 -28.785156 1.917969 -25.179688 Z M 8.558594 -4.953125 C 7.5625 -4.953125 7.023438 -5.449219 7.023438 -6.488281 L 7.023438 -24.21875 C 7.023438 -25.214844 7.5625 -25.753906 8.558594 -25.753906 L 10.785156 -25.753906 C 11.78125 -25.753906 12.320312 -25.214844 12.320312 -24.21875 L 12.320312 -6.488281 C 12.320312 -5.449219 11.78125 -4.953125 10.785156 -4.953125 Z M 8.558594 -4.953125 "/></g></g></g></svg>